<svg width="410" height="500" viewBox="0 0 410 500" fill="none" xmlns="http://www.w3.org/2000/svg">
<path fill-rule="evenodd" clip-rule="evenodd" d="M204.545 4.04156e-07C198.03 -0.000868345 191.591 1.39883 185.664 4.10425C179.737 6.80966 174.461 10.7576 170.194 15.6804C165.926 20.6032 162.767 26.386 160.93 32.6367C159.092 38.8874 158.62 45.46 159.545 51.9091C126.605 61.6347 97.6947 81.755 77.1316 109.265C56.5686 136.775 45.4564 170.199 45.4545 204.545V386.364H22.7273C16.6996 386.364 10.9189 388.758 6.65666 393.02C2.39447 397.282 0 403.063 0 409.091C0 415.119 2.39447 420.899 6.65666 425.162C10.9189 429.424 16.6996 431.818 22.7273 431.818H386.364C392.391 431.818 398.172 429.424 402.434 425.162C406.696 420.899 409.091 415.119 409.091 409.091C409.091 403.063 406.696 397.282 402.434 393.02C398.172 388.758 392.391 386.364 386.364 386.364H363.636V204.545C363.635 170.199 352.522 136.775 331.959 109.265C311.396 81.755 282.486 61.6347 249.545 51.9091C250.471 45.46 249.999 38.8874 248.161 32.6367C246.324 26.386 243.165 20.6032 238.897 15.6804C234.629 10.7576 229.353 6.80966 223.427 4.10425C217.5 1.39883 211.061 -0.000868345 204.545 4.04156e-07ZM250 477.273C250 483.3 247.606 489.081 243.343 493.343C239.081 497.606 233.3 500 227.273 500H181.818C175.791 500 170.01 497.606 165.748 493.343C161.485 489.081 159.091 483.3 159.091 477.273C159.091 471.245 161.485 465.464 165.748 461.202C170.01 456.94 175.791 454.545 181.818 454.545H227.273C233.3 454.545 239.081 456.94 243.343 461.202C247.606 465.464 250 471.245 250 477.273Z" fill="black"/>
</svg>
