<svg width="450" height="500" viewBox="0 0 450 500" fill="none" xmlns="http://www.w3.org/2000/svg">
<path d="M0 100C0 72.5 22.5 50 50 50H400C413.261 50 425.979 55.2678 435.355 64.6447C444.732 74.0215 450 86.7392 450 100V450C450 463.261 444.732 475.979 435.355 485.355C425.979 494.732 413.261 500 400 500H50C36.7392 500 24.0215 494.732 14.6447 485.355C5.26784 475.979 0 463.261 0 450V100ZM50 150V450H400V150H50ZM100 0H150V50H100V0ZM300 0H350V50H300V0ZM100 225H150V275H100V225ZM100 325H150V375H100V325ZM200 225H250V275H200V225ZM200 325H250V375H200V325ZM300 225H350V275H300V225ZM300 325H350V375H300V325Z" fill="black"/>
</svg>
