<svg width="250" height="228" viewBox="0 0 250 228" fill="none" xmlns="http://www.w3.org/2000/svg">
<path d="M225 25.2525H185.375L162.5 0H87.5L64.625 25.2525H25C18.3696 25.2525 12.0107 27.9131 7.32233 32.6488C2.63392 37.3846 0 43.8077 0 50.5051V202.02C0 208.718 2.63392 215.141 7.32233 219.876C12.0107 224.612 18.3696 227.273 25 227.273H225C231.63 227.273 237.989 224.612 242.678 219.876C247.366 215.141 250 208.718 250 202.02V50.5051C250 43.8077 247.366 37.3846 242.678 32.6488C237.989 27.9131 231.63 25.2525 225 25.2525ZM225 202.02H25V50.5051H75.625L98.5 25.2525H151.5L174.375 50.5051H225V202.02ZM125 63.1313C108.424 63.1313 92.5269 69.7826 80.8058 81.622C69.0848 93.4615 62.5 109.519 62.5 126.263C62.5 143.006 69.0848 159.064 80.8058 170.903C92.5269 182.743 108.424 189.394 125 189.394C141.576 189.394 157.473 182.743 169.194 170.903C180.915 159.064 187.5 143.006 187.5 126.263C187.5 109.519 180.915 93.4615 169.194 81.622C157.473 69.7826 141.576 63.1313 125 63.1313ZM125 164.141C115.054 164.141 105.516 160.151 98.4835 153.047C91.4509 145.943 87.5 136.309 87.5 126.263C87.5 116.217 91.4509 106.582 98.4835 99.4783C105.516 92.3746 115.054 88.3838 125 88.3838C134.946 88.3838 144.484 92.3746 151.517 99.4783C158.549 106.582 162.5 116.217 162.5 126.263C162.5 136.309 158.549 145.943 151.517 153.047C144.484 160.151 134.946 164.141 125 164.141Z" fill="black"/>
</svg>
