<svg xmlns="http://www.w3.org/2000/svg" viewBox="0 0 24 24" id="logout"><path d="m20.53,12.53l-3,3c-.146.146-.338.22-.53.22s-.384-.073-.53-.22c-.293-.293-.293-.768,0-1.061l1.72-1.72h-9.189c-.414,0-.75-.336-.75-.75s.336-.75.75-.75h9.189l-1.72-1.72c-.293-.293-.293-.768,0-1.061s.768-.293,1.061,0l3,3c.293.293.293.768,0,1.061Zm-10.78,7.47c0-.414-.336-.75-.75-.75h-3c-.689,0-1.25-.561-1.25-1.25V6c0-.689.561-1.25,1.25-1.25h3c.414,0,.75-.336.75-.75s-.336-.75-.75-.75h-3c-1.517,0-2.75,1.233-2.75,2.75v12c0,1.517,1.233,2.75,2.75,2.75h3c.414,0,.75-.336.75-.75Z"></path></svg>