<svg width="500" height="500" viewBox="0 0 500 500" fill="none" xmlns="http://www.w3.org/2000/svg">
<path d="M250 250C215.625 250 186.198 237.76 161.719 213.281C137.24 188.802 125 159.375 125 125C125 90.625 137.24 61.1979 161.719 36.7188C186.198 12.2396 215.625 0 250 0C284.375 0 313.802 12.2396 338.281 36.7188C362.76 61.1979 375 90.625 375 125C375 159.375 362.76 188.802 338.281 213.281C313.802 237.76 284.375 250 250 250ZM0 500V412.5C0 394.792 4.56251 378.51 13.6875 363.656C22.8125 348.802 34.9167 337.479 50 329.687C82.2917 313.542 115.104 301.427 148.437 293.344C181.771 285.26 215.625 281.229 250 281.25C284.375 281.25 318.229 285.292 351.562 293.375C384.896 301.458 417.708 313.562 450 329.687C465.104 337.5 477.219 348.833 486.344 363.687C495.469 378.542 500.021 394.813 500 412.5V500H0Z" fill="black"/>
</svg>
