<svg width="26" height="26" viewBox="0 0 26 26" fill="none" xmlns="http://www.w3.org/2000/svg">
<path d="M21.1342 25.6908H5.22117C2.5847 25.6908 0.513184 23.6192 0.513184 20.9828V5.0698C0.513184 2.43333 2.5847 0.361816 5.22117 0.361816H21.1342C23.7706 0.361816 25.8421 2.43333 25.8421 5.0698V20.9828C25.8421 23.6192 23.6765 25.6908 21.1342 25.6908Z" fill="#6A994E"/>
<path fill-rule="evenodd" clip-rule="evenodd" d="M7.53319 3.75554C7.39571 3.79538 7.2774 3.83343 7.27026 3.84011C7.25398 3.85533 7.83757 6.15784 7.87171 6.21312C7.88999 6.2427 7.96338 6.23734 8.14349 6.19329C8.27919 6.16013 8.40385 6.12072 8.42053 6.10575C8.44316 6.08545 7.98398 4.1784 7.85089 3.73996C7.82836 3.66575 7.84614 3.66486 7.53319 3.75554ZM16.5223 3.80431C16.3961 3.89271 16.3759 3.96045 16.2819 4.60641C16.2331 4.94267 16.1764 5.24905 16.1559 5.28728C16.0923 5.40608 15.9574 5.47283 15.835 5.44592C15.7444 5.42602 15.65 5.32244 15.3141 4.87474C14.8804 4.29667 14.7847 4.21595 14.6108 4.28213C14.5584 4.30206 14.3104 4.47335 14.0597 4.66279L13.6038 5.00727L13.2796 4.98683C12.3366 4.92748 11.3073 5.14776 10.4168 5.5996C9.85107 5.88662 9.41667 6.20311 8.96156 6.65978C8.01626 7.60827 7.4613 8.74644 7.29536 10.0769C7.25344 10.413 7.24708 10.4304 7.16631 10.4304C7.11957 10.4304 7.03743 10.4746 6.9838 10.5287C6.90138 10.6117 6.87014 10.7059 6.78226 11.1361C6.72501 11.4161 6.66513 11.6452 6.6491 11.6452C6.6331 11.6452 6.43177 11.5131 6.2017 11.3516C5.60025 10.9295 5.64863 10.9199 4.97823 11.5948C4.5274 12.0486 4.44434 12.149 4.44434 12.2398C4.44434 12.3162 4.53232 12.4759 4.74787 12.7907C4.91481 13.0345 5.05139 13.2427 5.05139 13.2535C5.05139 13.2642 4.82243 13.3198 4.54254 13.3771C4.1126 13.465 4.01847 13.4963 3.93548 13.5787L3.83728 13.6763V14.3786V15.0808L3.93548 15.1784C4.01829 15.2608 4.11199 15.2921 4.53361 15.3783C4.80857 15.4346 5.0405 15.4861 5.04904 15.4929C5.05754 15.4997 4.92302 15.7132 4.75012 15.9673C4.46833 16.3813 4.43798 16.4416 4.45791 16.5478C4.47505 16.6391 4.59699 16.783 4.99044 17.176C5.65181 17.8366 5.59992 17.8261 6.19205 17.4181C6.43641 17.2497 6.64578 17.1119 6.65731 17.1119C6.66881 17.1119 6.72501 17.341 6.78226 17.6211C6.87014 18.0512 6.90138 18.1454 6.9838 18.2285L7.08132 18.3267H7.78315H8.48498L8.5825 18.2285C8.66492 18.1454 8.69616 18.0512 8.78405 17.6211C8.84129 17.341 8.89749 17.1119 8.90899 17.1119C8.92053 17.1119 9.12989 17.2497 9.37425 17.4181C9.93038 17.8013 9.9482 17.8015 10.3216 17.4304L10.5786 17.1749L10.5927 17.7419C10.6047 18.2267 10.6179 18.3334 10.6835 18.478C10.7837 18.6986 10.9173 18.8713 11.0675 18.9743L11.1885 19.0572L11.1998 20.0408L11.2112 21.0243L11.3113 21.2387C11.4412 21.5173 11.6494 21.7266 11.9212 21.8521C12.1352 21.9508 12.1549 21.9532 12.8879 21.9652C13.7052 21.9788 13.9769 21.9471 14.2108 21.811C14.4259 21.6859 14.6204 21.476 14.7246 21.2566C14.8172 21.0615 14.8179 21.0529 14.8297 20.0596L14.8414 19.0592L14.9825 18.9605C15.06 18.9063 15.1718 18.7857 15.2308 18.6926C15.4171 18.3987 15.4428 18.2464 15.4428 17.4345C15.4428 16.2494 15.5484 16.0029 16.2777 15.4867C16.758 15.1468 16.8514 15.0614 16.8137 14.9967C16.7962 14.9668 16.7087 14.8615 16.6194 14.7627L16.4569 14.5832L16.3337 14.6865C16.266 14.7433 16.0608 14.8971 15.8778 15.0282C15.3585 15.4004 15.0984 15.7294 14.9368 16.2187C14.8696 16.4221 14.8575 16.5619 14.839 17.347L14.8179 18.2432L14.7178 18.3743C14.5296 18.621 14.5667 18.6161 12.9873 18.6048L11.5683 18.5947L11.4517 18.5115C11.2246 18.3493 11.2134 18.2974 11.1903 17.2906C11.1669 16.2678 11.1407 16.1377 10.875 15.7283C10.7006 15.4596 10.5362 15.3015 10.1221 15.0041C9.67785 14.6851 9.45159 14.4876 9.15239 14.1581C8.52551 13.4675 8.09482 12.5828 7.90299 11.5916C7.82904 11.2096 7.84018 10.1333 7.92202 9.75153C8.25166 8.21435 9.15614 6.96652 10.4663 6.24138C11.15 5.863 11.8531 5.65487 12.6664 5.59017C12.931 5.56912 12.9431 5.57144 12.9431 5.64344C12.9431 5.7512 12.9801 5.8104 13.3935 6.36425C13.7769 6.87791 13.8288 7.00275 13.7187 7.14635C13.6082 7.29034 13.5451 7.29384 12.8527 7.1943C12.1244 7.08961 12.0271 7.09854 11.9455 7.27762C11.8814 7.4185 11.6404 9.18085 11.6695 9.29551C11.7106 9.45661 11.8302 9.50163 12.4608 9.59332C12.7868 9.64073 13.0934 9.68954 13.142 9.70176C13.3237 9.74735 13.3983 10.0128 13.2727 10.1664C13.2387 10.2079 12.9842 10.4116 12.707 10.6192C12.2003 10.9987 12.1575 11.0438 12.1575 11.2003C12.1575 11.2966 13.2863 12.8309 13.4032 12.8935C13.5575 12.9762 13.6493 12.9341 14.1818 12.537C14.4727 12.32 14.7462 12.1335 14.7896 12.1226C14.9078 12.0928 15.0613 12.1573 15.1199 12.2615C15.1664 12.3438 15.1631 12.4197 15.0899 12.9554C15.0448 13.2861 15.0133 13.6195 15.02 13.6962C15.0404 13.9311 15.1067 13.9567 16.0528 14.0942C17.0453 14.2384 17.201 14.2451 17.2988 14.1472C17.3859 14.06 17.3879 14.0512 17.4945 13.3067C17.5743 12.7498 17.5892 12.6926 17.6747 12.6189C17.7675 12.5388 17.8833 12.518 17.9958 12.5612C18.0283 12.5737 18.2243 12.8109 18.4313 13.0882C18.6382 13.3656 18.8397 13.6207 18.8789 13.655C19.0453 13.8009 19.1379 13.7565 19.9778 13.1273C20.7714 12.5327 20.8627 12.4399 20.8201 12.2701C20.8098 12.229 20.6262 11.9621 20.412 11.6771C20.1979 11.392 20.0122 11.1256 19.9994 11.0851C19.9666 10.9819 20.0294 10.8381 20.1385 10.7666C20.2262 10.7091 20.2656 10.7108 20.9065 10.8001C21.5977 10.8963 21.6967 10.8932 21.7967 10.7727C21.8386 10.7221 22.1172 8.9873 22.1196 8.76202C22.1201 8.7189 22.0843 8.64179 22.0401 8.5907C21.9659 8.50491 21.9065 8.48994 21.2686 8.39615C20.8427 8.33355 20.5583 8.27524 20.5272 8.24422C20.4445 8.16137 20.4085 7.98354 20.4553 7.88864C20.4782 7.84223 20.7136 7.64017 20.9784 7.43962C21.5149 7.0333 21.6205 6.92861 21.6205 6.80316C21.6205 6.7481 21.4264 6.45665 21.0804 5.99231C20.3994 5.07826 20.3925 5.0709 20.2234 5.0709C20.1087 5.0709 20.0137 5.12746 19.5605 5.46543C19.2696 5.68238 18.9966 5.86875 18.9539 5.87951C18.8313 5.91041 18.6792 5.81709 18.6362 5.6846C18.6064 5.59256 18.616 5.44353 18.6799 5.00616C18.7828 4.30106 18.7831 4.23986 18.6834 4.12391C18.6073 4.03534 18.5525 4.02312 17.6389 3.89074C17.1086 3.81389 16.6583 3.75054 16.6381 3.74996C16.6179 3.74936 16.5658 3.77383 16.5223 3.80431ZM18.1119 4.58544C18.1198 4.5933 18.0993 4.78213 18.0665 5.00505C17.9815 5.58248 17.9876 5.77178 18.0983 5.99041C18.3189 6.42607 18.8617 6.61536 19.2811 6.40295C19.3402 6.37297 19.562 6.21969 19.7738 6.0623C19.9856 5.90491 20.1638 5.78225 20.1698 5.78975C20.3139 5.97001 20.8415 6.69126 20.8529 6.72348C20.8618 6.74857 20.7193 6.87748 20.5272 7.01818C19.964 7.43072 19.8264 7.62735 19.8262 8.01995C19.826 8.38346 20.0372 8.70614 20.3649 8.84316C20.4355 8.87271 20.7098 8.9287 20.9743 8.96758C21.2388 9.00649 21.4597 9.04279 21.4652 9.04829C21.4706 9.05376 21.4359 9.31473 21.3879 9.62819C21.3399 9.94168 21.3003 10.2075 21.2998 10.219C21.2995 10.2305 21.0942 10.2093 20.8438 10.1719C20.5934 10.1345 20.3062 10.1117 20.2056 10.1212C19.6671 10.172 19.2977 10.6743 19.408 11.2058C19.4403 11.3614 19.5093 11.4809 19.7665 11.8258C19.9416 12.0608 20.085 12.259 20.085 12.2663C20.085 12.2736 19.8696 12.4414 19.6064 12.6391L19.1279 12.9986L18.8119 12.5819C18.4039 12.0439 18.2625 11.9486 17.8738 11.9497C17.5498 11.9507 17.3746 12.0286 17.1772 12.2594C17.0252 12.4371 16.9649 12.6303 16.904 13.1348C16.8799 13.3351 16.8485 13.5178 16.8342 13.5409C16.8148 13.5724 16.6655 13.5627 16.2327 13.5016C15.5694 13.408 15.6274 13.4713 15.7106 12.9315C15.7909 12.4102 15.7816 12.2228 15.6644 11.9983C15.487 11.6585 15.1512 11.4749 14.7773 11.5132C14.543 11.5372 14.44 11.5921 13.9845 11.9352L13.6118 12.216L13.2596 11.7458C13.0659 11.4873 12.9074 11.2645 12.9074 11.2508C12.9074 11.2372 13.0838 11.0927 13.2993 10.9297C13.5148 10.7668 13.7321 10.5743 13.7822 10.502C14.0835 10.0669 13.9531 9.46347 13.5002 9.19793C13.3823 9.12879 13.2234 9.08917 12.8319 9.03121C12.5494 8.98937 12.3133 8.95125 12.3074 8.9465C12.2898 8.93238 12.4518 7.8066 12.4755 7.77909C12.4873 7.76526 12.7139 7.78595 12.979 7.82507C13.6216 7.9199 13.8476 7.87631 14.1185 7.60534C14.2833 7.44041 14.3445 7.29738 14.3634 7.03348C14.3851 6.72956 14.3221 6.58432 13.9614 6.10778C13.8111 5.9092 13.6932 5.7323 13.6995 5.71468C13.7105 5.68385 14.6048 4.99944 14.6341 4.99944C14.642 4.99944 14.7872 5.18424 14.9567 5.41005C15.1262 5.6359 15.325 5.85978 15.3985 5.90763C15.7778 6.15456 16.2253 6.10007 16.5574 5.76653C16.7182 5.60492 16.7772 5.43095 16.8539 4.89225C16.8861 4.66626 16.9178 4.46378 16.9243 4.44227C16.9324 4.41522 17.1147 4.42901 17.5168 4.48715C17.8363 4.53334 18.104 4.57758 18.1119 4.58544ZM4.81678 5.59063C4.72505 5.71926 4.65595 5.82916 4.6632 5.83484C4.79079 5.93442 6.71741 7.29738 6.74623 7.30845C6.78233 7.32232 7.14374 6.86472 7.116 6.84029C7.03304 6.76722 5.03283 5.35674 5.01215 5.35674C4.99644 5.35674 4.90852 5.462 4.81678 5.59063ZM16.3843 6.6249C15.646 6.78555 15.0385 7.26326 14.7145 7.93787C14.5254 8.33144 14.4675 8.58612 14.4686 9.01906C14.4701 9.66942 14.7056 10.2295 15.1765 10.7033C15.4172 10.9457 15.5216 11.021 15.8023 11.1554C16.2444 11.3672 16.4492 11.4134 16.9247 11.4089C17.2441 11.4058 17.3709 11.3877 17.6032 11.3121C18.2666 11.0959 18.7649 10.6584 19.071 10.0231C19.523 9.08509 19.2859 7.90497 18.503 7.19537C18.2347 6.95223 17.7378 6.69783 17.3889 6.62498C17.0834 6.5612 16.6772 6.56116 16.3843 6.6249ZM10.5231 7.3037C9.67053 7.9244 9.06858 8.8616 8.85903 9.89445C8.52701 11.531 9.19834 13.2223 10.5685 14.2012C10.7256 14.3134 11.0955 14.522 11.3906 14.6648C11.8822 14.9026 11.9468 14.9453 12.1642 15.1759C12.4372 15.4654 12.6086 15.7903 12.6631 16.1216C12.7332 16.5479 12.6921 16.5045 13.0256 16.5045H13.3208L13.2962 16.2633C13.2626 15.9345 13.2331 15.8109 13.123 15.5386C12.9974 15.2279 12.8073 14.9477 12.556 14.7028C12.2824 14.436 12.1523 14.3512 11.6611 14.1194C11.1268 13.8673 10.8332 13.6751 10.5036 13.3619C9.89985 12.788 9.50419 11.9884 9.40606 11.1439C9.26001 9.88687 9.81165 8.5917 10.8095 7.8488C10.9421 7.75011 11.0505 7.65643 11.0505 7.6406C11.0505 7.61448 10.7659 7.14324 10.7502 7.14324C10.7465 7.14324 10.6443 7.21545 10.5231 7.3037ZM17.3103 7.23217C17.9563 7.40053 18.4716 7.91158 18.6437 8.55457C18.8017 9.14498 18.6089 9.82356 18.1538 10.2789C17.4398 10.9933 16.3211 10.989 15.6015 10.269C14.8836 9.55069 14.889 8.42791 15.6138 7.71838C16.086 7.256 16.7127 7.07642 17.3103 7.23217ZM5.3486 8.62039C4.71666 8.78071 4.18973 8.92195 4.17763 8.93424C4.15334 8.95893 4.26068 9.43103 4.30086 9.47623C4.31985 9.49759 6.45012 8.99384 6.68163 8.91327C6.73555 8.89447 6.59521 8.32094 6.53783 8.32562C6.51572 8.32744 5.98055 8.4601 5.3486 8.62039ZM7.49312 12.3574C7.52497 12.4641 7.55104 12.5549 7.55104 12.5593C7.55104 12.5635 7.4667 12.5867 7.36357 12.6107C6.63342 12.7808 6.04608 13.449 5.96034 14.2073C5.8882 14.8451 6.24712 15.5787 6.79329 15.9099C7.65949 16.4351 8.72684 16.2106 9.28308 15.3864L9.39867 15.215L9.50151 15.2989C9.55804 15.345 9.71102 15.4578 9.84147 15.5496C10.1237 15.7482 10.3365 15.9811 10.443 16.2078L10.5207 16.3731L10.1977 16.6963L9.87475 17.0195L9.51441 16.7755C9.31618 16.6414 9.09318 16.5162 9.01883 16.4973C8.76783 16.4335 8.48609 16.5706 8.35882 16.8183C8.33139 16.8717 8.27176 17.0963 8.22634 17.3173L8.14371 17.7193H7.78087H7.41799L7.35789 17.4166C7.22859 16.7651 7.12232 16.591 6.80108 16.5045C6.59357 16.4486 6.45359 16.4993 6.04493 16.7785L5.69195 17.0198L5.4177 16.7454L5.14345 16.471L5.38624 16.1153C5.51979 15.9197 5.64306 15.6981 5.6602 15.6229C5.72866 15.3227 5.53543 15.0086 5.22562 14.9165C5.12874 14.8877 4.91331 14.8371 4.7469 14.8041L4.44434 14.7439V14.3787V14.0134L4.84578 13.9334C5.06661 13.8894 5.28965 13.8314 5.34146 13.8046C5.57107 13.6858 5.71701 13.3832 5.66167 13.1407C5.64535 13.0691 5.52543 12.8544 5.39524 12.6636C5.26504 12.4728 5.15852 12.3059 5.15852 12.2927C5.15852 12.2795 5.27833 12.1497 5.42473 12.0041L5.69091 11.7395L6.06689 11.9944C6.47209 12.269 6.60525 12.3152 6.82225 12.2563C7.06115 12.1915 7.22673 11.9914 7.28358 11.6988C7.31104 11.5576 7.31207 11.5595 7.37328 11.8596C7.40731 12.0266 7.46127 12.2506 7.49312 12.3574ZM7.89478 13.3692C8.10261 13.7796 8.33414 14.1142 8.72591 14.5703L8.92131 14.7977L8.83711 14.9566C8.72134 15.1749 8.44488 15.4135 8.20102 15.5056C8.03619 15.5678 7.94302 15.5795 7.71173 15.5672C7.23348 15.5417 6.89753 15.3128 6.68563 14.8679C6.58589 14.6585 6.57946 14.6208 6.5945 14.332C6.60596 14.1113 6.63338 13.9738 6.68913 13.8576C6.8701 13.4802 7.28665 13.1934 7.66649 13.1847C7.79244 13.1818 7.80504 13.192 7.89478 13.3692ZM18.7994 15.3075V15.6112H19.8529H20.9063V15.3075V15.0038H19.8529H18.7994V15.3075ZM18.4787 16.8107C18.3735 16.9404 18.3034 17.0571 18.3212 17.0728C18.3387 17.0884 18.7456 17.4279 19.2253 17.8274L20.0976 18.5535L20.2868 18.3419C20.3909 18.2255 20.4764 18.1186 20.4769 18.1044C20.4776 18.0847 19.0461 16.8729 18.7247 16.6211C18.6766 16.5835 18.6403 16.6115 18.4787 16.8107ZM12.7289 17.5585V18.0052H13.0324H13.3359V17.5585V17.1119H13.0324H12.7289V17.5585ZM16.9783 18.4682V19.5415H17.2823H17.5864L17.5769 18.4786L17.5675 17.4156L17.2729 17.4052L16.9783 17.3948V18.4682ZM14.2287 19.5237V19.8274H13.0146H11.8004V19.5475C11.8004 19.3935 11.8112 19.2569 11.8243 19.2438C11.8373 19.2307 12.3837 19.22 13.0384 19.22H14.2287V19.5237ZM14.2287 20.6557C14.2287 20.9308 14.1363 21.1337 13.9552 21.2566C13.8261 21.3441 13.8081 21.3461 13.053 21.3558C12.1862 21.3669 12.1301 21.3545 11.9338 21.1087C11.8539 21.0085 11.8256 20.9292 11.8105 20.7628C11.7782 20.4058 11.6702 20.4348 13.0313 20.4348H14.2287V20.6557Z" fill="white"/>
</svg>
