<svg width="500" height="500" viewBox="0 0 500 500" fill="none" xmlns="http://www.w3.org/2000/svg">
<path fill-rule="evenodd" clip-rule="evenodd" d="M101.079 1.9075C97.3188 2.99705 94.0833 4.03774 93.888 4.22047C93.4426 4.63675 109.403 67.6077 110.337 69.1194C110.837 69.9285 112.844 69.782 117.77 68.5771C121.481 67.6703 124.89 66.5925 125.346 66.183C125.966 65.628 113.407 13.4723 109.768 1.48146C109.151 -0.548133 109.638 -0.572563 101.079 1.9075ZM346.92 3.24134C343.47 5.65887 342.916 7.51159 340.347 25.1779C339.01 34.3741 337.459 42.7533 336.9 43.7989C335.161 47.048 331.47 48.8734 328.123 48.1376C325.646 47.5933 323.063 44.7605 313.877 32.5165C302.017 16.7068 299.398 14.4994 294.642 16.3091C293.209 16.8543 286.427 21.5389 279.57 26.7199L267.102 36.1408L258.236 35.5819C232.446 33.9588 204.296 39.9831 179.943 52.3404C164.47 60.19 152.59 68.8458 140.143 81.3351C114.29 107.275 99.1128 138.403 94.5745 174.79C93.428 183.981 93.2542 184.457 91.0451 184.457C89.7667 184.457 87.5205 185.667 86.0536 187.144C83.7996 189.415 82.9451 191.991 80.5417 203.756C78.9762 211.415 77.3384 217.681 76.8999 217.681C76.4624 217.681 70.9563 214.068 64.664 209.652C48.215 198.106 49.5383 197.843 31.2035 216.302C18.8739 228.714 16.6023 231.459 16.6023 233.943C16.6023 236.032 19.0087 240.398 24.9035 249.008C29.4691 255.676 33.2046 261.371 33.2046 261.665C33.2046 261.959 26.9426 263.479 19.288 265.046C7.52963 267.45 4.9553 268.305 2.68567 270.561L0 273.229V292.435V311.64L2.68567 314.311C4.95042 316.563 7.51303 317.42 19.0438 319.777C26.5637 321.315 32.9067 322.725 33.1402 322.911C33.3726 323.097 29.6937 328.935 24.965 335.884C17.2586 347.206 16.4285 348.856 16.9734 351.76C17.4422 354.259 20.7773 358.194 31.5375 368.941C49.6253 387.008 48.2063 386.721 64.4003 375.562C71.0833 370.957 76.8091 367.189 77.1245 367.189C77.439 367.189 78.9762 373.454 80.5417 381.113C82.9451 392.878 83.7996 395.454 86.0536 397.725L88.7208 400.412H107.915H127.109L129.776 397.725C132.03 395.454 132.885 392.878 135.288 381.113C136.854 373.455 138.391 367.189 138.705 367.189C139.021 367.189 144.747 370.957 151.43 375.562C166.639 386.043 167.127 386.049 177.34 375.898L184.369 368.911L184.753 384.418C185.082 397.676 185.442 400.594 187.237 404.549C189.977 410.584 193.631 415.306 197.737 418.122L201.046 420.39L201.358 447.289L201.669 474.189L204.405 480.052C207.959 487.672 213.652 493.396 221.087 496.827C226.94 499.528 227.477 499.592 247.524 499.922C269.875 500.291 277.307 499.425 283.704 495.703C289.585 492.282 294.907 486.541 297.755 480.541C300.288 475.205 300.308 474.97 300.629 447.805L300.95 420.445L304.808 417.747C306.929 416.262 309.986 412.964 311.6 410.418C316.695 402.38 317.397 398.215 317.397 376.011C317.397 343.601 320.287 336.859 340.232 322.742C353.367 313.445 355.922 311.109 354.889 309.34C354.411 308.522 352.02 305.642 349.575 302.941L345.131 298.031L341.762 300.856C339.91 302.41 334.299 306.616 329.295 310.202C315.092 320.38 307.98 329.378 303.559 342.759C301.72 348.324 301.389 352.147 300.884 373.619L300.306 398.128L297.57 401.714C292.423 408.46 293.436 408.326 250.242 408.018L211.435 407.741L208.247 405.465C202.033 401.031 201.729 399.611 201.098 372.074C200.457 344.103 199.739 340.546 192.472 329.349C187.703 322 183.207 317.675 171.883 309.543C159.733 300.817 153.545 295.418 145.362 286.405C128.218 267.519 116.439 243.322 111.192 216.215C109.17 205.766 109.475 176.331 111.713 165.891C120.728 123.851 145.465 89.7241 181.296 69.8924C199.995 59.5441 219.224 53.8521 241.466 52.0824C248.703 51.5069 249.035 51.5704 249.035 53.5394C249.035 56.4865 250.046 58.1057 261.353 73.2529C271.838 87.3007 273.257 90.715 270.244 94.6422C267.223 98.5802 265.498 98.676 246.562 95.9536C226.644 93.0905 223.982 93.3348 221.751 98.2324C219.997 102.085 213.405 150.283 214.203 153.419C215.325 157.825 218.596 159.057 235.843 161.564C244.759 162.861 253.143 164.195 254.473 164.53C259.441 165.777 261.482 173.037 258.047 177.237C257.118 178.371 250.157 183.944 242.575 189.622C228.718 199.999 227.549 201.234 227.549 205.512C227.549 208.147 258.42 250.11 261.617 251.822C265.836 254.081 268.348 252.931 282.91 242.069C290.867 236.136 298.346 231.036 299.532 230.737C302.764 229.922 306.963 231.687 308.568 234.535C309.837 236.788 309.747 238.863 307.747 253.512C306.512 262.559 305.651 271.675 305.834 273.772C306.394 280.199 308.206 280.897 334.079 284.657C361.223 288.602 365.481 288.784 368.156 286.108C370.539 283.723 370.595 283.483 373.51 263.12C375.691 247.889 376.1 246.325 378.437 244.309C380.976 242.119 384.141 241.55 387.218 242.732C388.109 243.074 393.469 249.56 399.128 257.145C404.789 264.731 410.298 271.707 411.37 272.647C415.921 276.637 418.453 275.421 441.424 258.213C463.129 241.954 465.625 239.413 464.46 234.77C464.179 233.646 459.157 226.349 453.301 218.552C447.445 210.756 442.366 203.471 442.015 202.364C441.119 199.539 442.836 195.608 445.82 193.651C448.217 192.079 449.295 192.126 466.825 194.567C485.728 197.199 488.434 197.115 491.168 193.818C492.315 192.436 499.935 144.99 500 138.829C500.013 137.65 499.034 135.541 497.825 134.143C495.797 131.797 494.172 131.388 476.727 128.823C465.079 127.111 457.3 125.516 456.451 124.668C454.187 122.402 453.203 117.538 454.483 114.943C455.11 113.674 461.547 108.148 468.789 102.663C483.461 91.5504 486.35 88.6873 486.35 85.2565C486.35 83.7507 481.041 75.7799 471.579 63.0805C452.954 38.0825 452.766 37.8812 448.141 37.8812C445.005 37.8812 442.405 39.428 430.012 48.6711C422.056 54.6045 414.59 59.7014 413.421 59.9956C410.068 60.8408 405.909 58.2884 404.734 54.6651C403.918 52.1479 404.18 48.0721 405.927 36.1105C408.744 16.827 408.751 15.1531 406.024 11.9822C403.942 9.55975 402.444 9.22555 377.458 5.60513C362.956 3.50323 350.639 1.7707 350.087 1.75506C349.534 1.73845 348.109 2.40782 346.92 3.24134ZM390.394 24.6043C390.609 24.8193 390.051 29.9837 389.153 36.0802C386.828 51.8723 386.995 57.0494 390.023 63.0287C396.057 74.9434 410.9 80.1205 422.369 74.3112C423.988 73.4913 430.052 69.2992 435.846 64.9948C441.639 60.6903 446.512 57.3357 446.676 57.5409C450.616 62.4708 465.046 82.196 465.358 83.0774C465.6 83.7634 461.704 87.289 456.45 91.1371C441.048 102.42 437.284 107.797 437.278 118.534C437.273 128.476 443.048 137.301 452.011 141.048C453.943 141.856 461.443 143.388 468.677 144.451C475.911 145.515 481.952 146.508 482.103 146.658C482.252 146.808 481.301 153.945 479.988 162.518C478.676 171.091 477.593 178.362 477.581 178.675C477.57 178.989 471.957 178.409 465.109 177.387C458.261 176.365 450.406 175.741 447.655 176.001C432.928 177.39 422.826 191.128 425.841 205.664C426.724 209.918 428.613 213.186 435.645 222.62C440.436 229.047 444.356 234.468 444.356 234.668C444.356 234.868 438.466 239.455 431.267 244.863L418.18 254.695L409.538 243.3C398.379 228.583 394.512 225.977 383.882 226.01C375.021 226.037 370.23 228.166 364.832 234.478C360.673 239.337 359.025 244.622 357.361 258.419C356.701 263.896 355.841 268.894 355.451 269.525C354.919 270.387 350.837 270.121 339 268.45C320.861 265.891 322.447 267.623 324.722 252.859C326.918 238.602 326.664 233.476 323.459 227.337C318.607 218.046 309.422 213.023 299.196 214.071C292.788 214.728 289.973 216.227 277.513 225.613L267.321 233.29L257.689 220.433C252.392 213.361 248.058 207.269 248.058 206.895C248.058 206.522 252.88 202.569 258.775 198.113C264.669 193.656 270.613 188.393 271.982 186.415C280.223 174.515 276.656 158.013 264.271 150.751C261.046 148.86 256.7 147.776 245.991 146.191C238.266 145.047 231.81 144.004 231.647 143.874C231.166 143.488 235.598 112.699 236.244 111.947C236.568 111.569 242.766 112.135 250.015 113.205C267.589 115.798 273.771 114.606 281.179 107.195C285.686 102.684 287.361 98.7727 287.877 91.5553C288.472 83.2435 286.747 79.2713 276.883 66.2387C272.772 60.8076 269.548 55.9696 269.72 55.4879C270.02 54.6446 294.478 35.9268 295.28 35.9268C295.496 35.9268 299.466 40.9808 304.102 47.1565C308.739 53.3332 314.177 59.4562 316.186 60.7646C326.56 67.5179 338.798 66.0277 347.88 56.9058C352.278 52.486 353.893 47.7281 355.991 32.9953C356.87 26.8147 357.736 21.277 357.913 20.6888C358.137 19.9491 363.122 20.3262 374.12 21.9161C382.856 23.1796 390.18 24.3893 390.394 24.6043ZM26.7883 52.0951C24.2794 55.613 22.3897 58.6187 22.5879 58.7741C26.0773 61.4975 78.7682 98.7727 79.5563 99.0757C80.5436 99.4548 90.4279 86.9401 89.669 86.2718C87.4004 84.2734 32.6968 45.6986 32.1313 45.6986C31.7016 45.6986 29.2972 48.5773 26.7883 52.0951ZM343.145 80.3814C322.955 84.7747 306.34 97.8395 297.478 116.29C292.308 127.053 290.724 134.018 290.753 145.859C290.796 163.645 297.235 178.964 310.113 191.922C316.699 198.549 319.553 200.611 327.228 204.286C339.321 210.078 344.923 211.342 357.926 211.218C366.66 211.134 370.13 210.64 376.482 208.57C394.626 202.658 408.253 190.693 416.624 173.319C428.985 147.665 422.502 115.39 401.089 95.9829C393.753 89.3332 380.163 82.3758 370.622 80.3833C362.266 78.6391 351.156 78.6381 343.145 80.3814ZM182.849 98.9457C159.533 115.921 143.07 141.552 137.339 169.8C128.259 214.556 146.619 260.812 184.09 287.583C188.387 290.653 198.505 296.359 206.574 300.263C220.02 306.768 221.786 307.935 227.732 314.24C235.198 322.159 239.885 331.044 241.375 340.104C243.294 351.765 242.17 350.577 251.289 350.577H259.364L258.69 343.981C257.771 334.987 256.965 331.609 253.954 324.161C250.519 315.663 245.321 308 238.448 301.302C230.964 294.007 227.406 291.687 213.973 285.348C199.359 278.451 191.33 273.195 182.317 264.629C165.804 248.935 154.983 227.068 152.3 203.97C148.305 169.592 163.392 134.171 190.682 113.853C194.308 111.155 197.274 108.592 197.274 108.159C197.274 107.445 189.491 94.5572 189.059 94.5572C188.959 94.5572 186.164 96.5321 182.849 98.9457ZM368.471 96.9894C386.138 101.594 400.231 115.57 404.937 133.156C409.259 149.302 403.987 167.861 391.54 180.315C372.014 199.853 341.418 199.733 321.738 180.042C302.105 160.398 302.253 129.691 322.074 110.287C334.99 97.6412 352.127 92.7299 368.471 96.9894ZM41.3329 134.956C24.0499 139.34 9.6391 143.203 9.30803 143.539C8.64394 144.214 11.5796 157.126 12.6783 158.362C13.1979 158.946 71.4583 145.169 77.7896 142.965C79.2643 142.451 75.4262 126.766 73.8568 126.894C73.2523 126.944 58.6159 130.572 41.3329 134.956ZM99.983 237.158C100.854 240.077 101.567 242.561 101.567 242.679C101.567 242.796 99.2603 243.43 96.4399 244.086C76.4712 248.737 60.408 267.013 58.0631 287.75C56.0904 305.194 65.9063 325.257 80.8435 334.315C104.533 348.678 133.724 342.54 148.936 319.997L152.098 315.311L154.91 317.604C156.456 318.865 160.64 321.95 164.208 324.461C171.927 329.894 177.746 336.262 180.659 342.462L182.785 346.985L173.951 355.822L165.118 364.661L155.263 357.989C149.842 354.32 143.743 350.896 141.709 350.379C134.845 348.636 127.139 352.384 123.659 359.158C122.909 360.619 121.278 366.762 120.036 372.807L117.776 383.801H107.852H97.9282L96.2846 375.521C92.7483 357.703 89.8419 352.943 81.0564 350.576C75.3813 349.047 71.553 350.435 60.3767 358.072L50.723 364.669L43.2226 357.165L35.7223 349.66L42.3622 339.932C46.0148 334.582 49.386 328.522 49.8548 326.466C51.7269 318.255 46.4425 309.665 37.9695 307.148C35.3199 306.361 29.4281 304.976 24.8771 304.072L16.6023 302.427V292.438V282.448L27.5813 280.26C33.6206 279.056 39.7205 277.471 41.1376 276.737C47.4172 273.488 51.4085 265.214 49.8948 258.581C49.4485 256.622 46.1691 250.751 42.6083 245.532C39.0476 240.315 36.1344 235.751 36.1344 235.389C36.1344 235.028 39.4109 231.477 43.415 227.497L50.6946 220.261L60.9773 227.23C72.0589 234.741 75.7007 236.003 81.6355 234.394C88.169 232.622 92.6975 227.149 94.2523 219.147C95.0033 215.284 95.0316 215.336 96.7055 223.544C97.6362 228.112 99.1118 234.238 99.983 237.158ZM110.968 264.83C116.652 276.054 122.984 285.206 133.698 297.678L139.042 303.899L136.74 308.244C133.573 314.215 126.012 320.741 119.343 323.258C114.835 324.959 112.287 325.281 105.962 324.943C92.8821 324.246 83.6942 317.984 77.899 305.818C75.1713 300.091 74.9955 299.059 75.4067 291.161C75.7202 285.126 76.4702 281.365 77.9947 278.188C82.9441 267.867 94.3363 260.023 104.724 259.784C108.169 259.704 108.514 259.983 110.968 264.83ZM409.198 317.841V326.147H438.008H466.818V317.841V309.535H438.008H409.198V317.841ZM400.427 358.95C397.55 362.499 395.632 365.689 396.117 366.119C396.598 366.546 407.725 375.832 420.845 386.755L444.7 406.616L449.876 400.827C452.722 397.643 455.061 394.719 455.075 394.332C455.093 393.793 415.942 360.652 407.153 353.765C405.839 352.736 404.845 353.502 400.427 358.95ZM243.175 379.403V391.618H251.476H259.777V379.403V367.189H251.476H243.175V379.403ZM359.391 404.282V433.636H367.707H376.023L375.764 404.565L375.505 375.495L367.448 375.211L359.391 374.927V404.282ZM284.192 433.148V441.454H250.988H217.783V433.8C217.783 429.589 218.076 425.851 218.435 425.494C218.792 425.135 233.734 424.842 251.639 424.842H284.192V433.148ZM284.192 464.109C284.192 471.632 281.666 477.181 276.713 480.541C273.183 482.935 272.691 482.989 252.04 483.254C228.334 483.559 226.799 483.22 221.432 476.496C219.244 473.756 218.472 471.588 218.059 467.035C217.175 457.273 214.222 458.066 251.446 458.066H284.192V464.109Z" fill="black"/>
</svg>
