<svg xmlns="http://www.w3.org/2000/svg" width="32" height="32" id="teacher"><path d="M9.5 0a3 3 0 0 0-3 3 3 3 0 0 0 3 3 3 3 0 0 0 3-3 3 3 0 0 0-3-3zM16 1a.5.5 0 0 0-.5.5v4.727c-1.01.428-2.097.773-3 .773H5c-1.93 0-3.5 1.586-3.5 3.516V17.5a1.5 1.5 0 0 0 3 0v-6.984c0-.276.224-.516.5-.516h.5v20.5a1.5 1.5 0 0 0 3 0V23h2v7.5a1.5 1.5 0 0 0 3 0V9.922c.67-.093 1.348-.269 2-.486V13.5a.5.5 0 0 0 .5.5h14a.5.5 0 0 0 .5-.5v-12A.5.5 0 0 0 30 1H16zm.5 1h13v11h-13V9.062a21.607 21.607 0 0 0 3.455-1.812 1.5 1.5 0 1 0-1.66-2.5c-.364.242-1.018.631-1.795 1.02V2zM22 3a.5.5 0 1 0 0 1h6a.5.5 0 1 0 0-1h-6zm0 2a.5.5 0 1 0 0 1h3a.5.5 0 1 0 0-1h-3z"></path></svg>